<svg xmlns="http://www.w3.org/2000/svg" width="16" height="16" viewBox="0 0 16 16">
    <defs id="colors">
        <linearGradient id="fileIconBackground"
                        fallback="Label.foreground" opacity="fileIconOpacity"
                        opacity-fallback="%100">
            <stop offset="0" stop-color="#9AA7B0" stop-opacity=".8"/>
            <stop offset="1" stop-color="#9AA7B0" stop-opacity=".8"/>
        </linearGradient>
        <linearGradient id="menuIconHighlight"
                        fallback="textHighlight,%#0000FF">
            <stop offset="0" stop-color="#40B6E0"/>
            <stop offset="1" stop-color="#40B6E0"/>
        </linearGradient>
    </defs>
    <g fill="none" fill-rule="evenodd">
        <g fill="url(#fileIconBackground)">
            <polygon points="6 1 3 1 3 5 3 15 6 15"/>
            <polygon points="10 15 13 15 13 1 10 1"/>
        </g>
        <g fill="url(#menuIconHighlight)">
            <polygon points="7.6 2 6 2 6.8 3 8.401 3"/>
            <polygon points="7.6 8 6 8 6.8 9 8.401 9"/>
            <polygon points="7.6 10 6 10 6.8 11 8.401 11"/>
            <polygon points="7.6 12 6 12 6.8 13 8.401 13"/>
            <polygon points="7.6 14 6 14 6.8 15 8.401 15"/>
            <polygon points="7.6 4 6 4 6.8 5 8.401 5"/>
            <polygon points="7.6 6 6 6 6.8 7 8.401 7"/>
            <polygon points="8.4 3 10 3 9.2 4 7.599 4"/>
            <polygon points="8.4 1 10 1 9.2 2 7.599 2"/>
            <polygon points="8.4 9 10 9 9.2 10 7.599 10"/>
            <polygon points="8.4 11 10 11 9.2 12 7.599 12"/>
            <polygon points="8.4 13 10 13 9.2 14 7.599 14"/>
            <polygon points="8.4 5 10 5 9.2 6 7.599 6"/>
            <polygon points="8.4 7 10 7 9.2 8 7.599 8"/>
        </g>
    </g>
</svg>
