<svg xmlns="http://www.w3.org/2000/svg" width="16" height="16" viewBox="0 0 16 16">
    <defs id="colors">
        <linearGradient id="fileIconBackground"
                        fallback="Label.foreground" opacity="fileIconOpacity"
                        opacity-fallback="%100">
            <stop offset="0" stop-color="#9AA7B0" stop-opacity=".8"/>
            <stop offset="1" stop-color="#9AA7B0" stop-opacity=".8"/>
        </linearGradient>
    </defs>
    <g fill="url(#fileIconBackground)" fill-rule="evenodd">
        <path
            d="M7.9844,4 L6.6964,2.711 C6.3044,2.32 5.5324,2 4.9784,2 L1.0504,2 C1.0234,2 1.0004,2.023 1.0004,2.051 L1.0004,6 L2.0004,6 L2.0004,7 L3.0004,7.551 L3.0004,6 L4.0004,6 L4.0004,7 L5.0004,7.551 L5.0004,6 L6.0004,6 L6.0004,7 L7.0004,7.551 L7.0004,6 L8.0004,6 L8.0004,7 L9.0004,7.551 L9.0004,6 L10.0004,6 L10.0004,7 L11.0004,7.551 L11.0004,6 L12.0004,6 L12.0004,7 L13.0004,7.551 L13.0004,6 L14.0004,6 L14.0004,7 L15.0004,7.551 L15.0004,6 L15.0004,4 L7.9844,4 Z"/>
        <polygon
            points="14 9 14 8.245 13 7.571 13 9 12 9 12 8.245 11 7.571 11 9 10 9 10 8.245 9 7.571 9 9 8 9 8 8.245 7 7.571 7 9 6 9 6 8.245 5 7.571 5 9 4 9 4 8.245 3 7.571 3 9 2 9 2 8.245 1 7.571 1 9 1 13 15 13 15 9"/>
    </g>
</svg>
